<svg width="28" height="28" viewBox="0 0 28 28" fill="none" xmlns="http://www.w3.org/2000/svg">
<g filter="url(#filter0_b_1109_4006)">
<circle cx="14" cy="14" r="14" fill="#EAE6E0"/>
</g>
<path fill-rule="evenodd" clip-rule="evenodd" d="M10.1641 20.3288H7.00008L7 17.1647L10.1641 20.3288ZM11.3068 19.3503L7.97853 16.0219L17 7L20.3283 10.3283L11.3068 19.3503Z" fill="#333333"/>
<path d="M7.00008 20.3288L6.75008 20.3288C6.75009 20.4669 6.86201 20.5788 7.00008 20.5788V20.3288ZM10.1641 20.3288V20.5788C10.2652 20.5788 10.3564 20.5179 10.3951 20.4245C10.4338 20.3311 10.4124 20.2235 10.3409 20.152L10.1641 20.3288ZM7 17.1647L7.17678 16.988C7.10528 16.9165 6.99775 16.8951 6.90433 16.9338C6.81091 16.9725 6.75 17.0636 6.75 17.1647L7 17.1647ZM7.97853 16.0219L7.80174 15.8452C7.70412 15.9428 7.70412 16.1011 7.80175 16.1987L7.97853 16.0219ZM11.3068 19.3503L11.1301 19.527C11.1769 19.5739 11.2405 19.6003 11.3068 19.6003C11.3731 19.6003 11.4367 19.5739 11.4836 19.527L11.3068 19.3503ZM17 7L17.1768 6.82322C17.1299 6.77634 17.0663 6.75 17 6.75C16.9337 6.75 16.8701 6.77634 16.8232 6.82323L17 7ZM20.3283 10.3283L20.5051 10.5051C20.6027 10.4075 20.6027 10.2492 20.5051 10.1515L20.3283 10.3283ZM7.00008 20.5788H10.1641V20.0788H7.00008V20.5788ZM6.75 17.1647L6.75008 20.3288L7.25008 20.3288L7.25 17.1647L6.75 17.1647ZM10.3409 20.152L7.17678 16.988L6.82322 17.3415L9.98731 20.5056L10.3409 20.152ZM7.80175 16.1987L11.1301 19.527L11.4836 19.1735L8.1553 15.8452L7.80175 16.1987ZM16.8232 6.82323L7.80174 15.8452L8.15531 16.1987L17.1768 7.17677L16.8232 6.82323ZM20.5051 10.1515L17.1768 6.82322L16.8232 7.17678L20.1515 10.5051L20.5051 10.1515ZM11.4836 19.527L20.5051 10.5051L20.1515 10.1515L11.1301 19.1735L11.4836 19.527Z" fill="#333333"/>
<defs>
<filter id="filter0_b_1109_4006" x="-4" y="-4" width="36" height="36" filterUnits="userSpaceOnUse" color-interpolation-filters="sRGB">
<feFlood flood-opacity="0" result="BackgroundImageFix"/>
<feGaussianBlur in="BackgroundImageFix" stdDeviation="2"/>
<feComposite in2="SourceAlpha" operator="in" result="effect1_backgroundBlur_1109_4006"/>
<feBlend mode="normal" in="SourceGraphic" in2="effect1_backgroundBlur_1109_4006" result="shape"/>
</filter>
</defs>
</svg>
