<svg width="28" height="28" viewBox="0 0 28 28" fill="none" xmlns="http://www.w3.org/2000/svg">
<path fill-rule="evenodd" clip-rule="evenodd" d="M5.50023 5H23.5002C23.5002 5 24.1492 12.2625 23.0002 16C22.4368 17.8329 21.6266 20.1971 21.2328 21.3329C21.0938 21.7338 20.7163 22 20.292 22H4.41223C3.72267 22 3.2385 21.3194 3.46257 20.6673C3.89104 19.4202 4.53112 17.5259 5.00023 16C6.1492 12.2625 5.50023 5 5.50023 5ZM8.00023 13C8.00023 12.4477 8.44794 12 9.00023 12H19.0002C19.5525 12 20.0002 12.4477 20.0002 13C20.0002 13.5523 19.5525 14 19.0002 14H9.00023C8.44794 14 8.00023 13.5523 8.00023 13ZM15.0002 16C14.4479 16 14.0002 16.4477 14.0002 17C14.0002 17.5523 14.4479 18 15.0002 18L18.0002 18C18.5525 18 19.0002 17.5523 19.0002 17C19.0002 16.4477 18.5525 16 18.0002 16L15.0002 16Z" fill="#333333"/>
</svg>
